<svg xmlns="http://www.w3.org/2000/svg" viewBox="0 0 512 512" fill="none">
  <defs>
    <linearGradient id="gradient" x1="0%" y1="0%" x2="100%" y2="100%">
      <stop offset="0%" style="stop-color:#EC4899;stop-opacity:1" />
      <stop offset="50%" style="stop-color:#8B5CF6;stop-opacity:1" />
      <stop offset="100%" style="stop-color:#06B6D4;stop-opacity:1" />
    </linearGradient>
    <filter id="glow" x="-50%" y="-50%" width="200%" height="200%">
      <feGaussianBlur stdDeviation="8" result="coloredBlur"/>
      <feMerge>
        <feMergeNode in="coloredBlur"/>
        <feMergeNode in="SourceGraphic"/>
      </feMerge>
    </filter>
  </defs>
  <rect width="512" height="512" rx="128" fill="url(#gradient)" filter="url(#glow)"/>
  <path d="M140 320 L140 192 C140 150.7 173.7 117 215 117 C235.3 117 252.6 122.5 265.2 132.6 L265.2 132.6 L372 132.6 C413.3 132.6 447 166.3 447 207.6 L447 320" stroke="white" stroke-width="24" stroke-linecap="round" stroke-linejoin="round" fill="none" opacity="0.9"/>
  <path d="M190 192 L190 256" stroke="white" stroke-width="16" stroke-linecap="round" opacity="0.7"/>
  <path d="M256 192 L256 272" stroke="white" stroke-width="16" stroke-linecap="round" opacity="0.7"/>
  <path d="M322 192 L322 240" stroke="white" stroke-width="16" stroke-linecap="round" opacity="0.7"/>
  <circle cx="400" cy="112" r="16" fill="white" opacity="0.8"/>
  <circle cx="440" cy="140" r="10" fill="white" opacity="0.6"/>
  <circle cx="112" cy="400" r="12" fill="white" opacity="0.6"/>
  <circle cx="80" cy="72" r="8" fill="white" opacity="0.5"/>
  <text x="256" y="420" text-anchor="middle" font-family="system-ui, sans-serif" font-weight="800" font-size="48" fill="white" opacity="0.9">FLIQQ</text>
</svg>